<?xml version="1.0" encoding="UTF-8" ?>
<!DOCTYPE svg PUBLIC "-//W3C//DTD SVG 1.1//EN" "http://www.w3.org/Graphics/SVG/1.1/DTD/svg11.dtd">
<svg width="250pt" height="250pt" viewBox="0 0 250 250" version="1.1" xmlns="http://www.w3.org/2000/svg">
<g id="#ffffffff">
</g>
<g id="#1a1a1aff">
<path fill="#1a1a1a" opacity="1.00" d=" M 74.11 54.93 C 88.28 41.79 107.76 34.67 127.06 35.37 C 151.73 35.69 175.85 49.28 188.80 70.27 C 187.46 74.61 184.56 78.25 182.44 82.23 C 175.70 69.61 165.11 58.93 152.07 52.92 C 135.44 45.15 115.32 44.90 98.66 52.68 C 91.16 56.88 82.27 54.71 74.11 54.93 Z" />
<path fill="#1a1a1a" opacity="1.00" d=" M 35.89 59.65 C 70.59 59.67 105.30 59.66 140.00 59.66 C 145.72 59.68 151.54 59.17 157.14 60.62 C 153.46 61.23 149.73 61.48 146.01 61.51 C 113.67 61.37 81.34 61.56 49.00 61.40 C 45.01 61.45 41.03 61.76 37.05 62.06 C 36.76 61.46 36.18 60.25 35.89 59.65 Z" />
<path fill="#1a1a1a" opacity="1.00" d=" M 187.10 59.77 C 196.11 59.56 205.13 59.66 214.15 59.70 C 194.84 93.19 175.46 126.64 156.19 160.14 C 155.30 161.58 154.30 163.01 152.80 163.86 C 148.09 166.61 142.77 168.06 137.52 169.39 C 154.04 140.09 171.10 111.08 187.85 81.90 C 189.88 78.01 192.90 74.49 193.90 70.16 C 192.27 66.32 189.40 63.20 187.10 59.77 Z" />
<path fill="#1a1a1a" opacity="1.00" d=" M 157.16 61.26 C 160.98 62.75 163.80 65.94 166.73 68.68 C 159.85 69.50 152.92 69.68 146.00 69.46 C 115.96 69.47 85.93 69.42 55.89 69.49 C 88.93 69.63 121.97 69.45 155.00 69.59 C 159.79 69.71 165.01 67.95 169.40 70.65 C 163.98 71.59 158.47 71.26 153.00 71.28 C 120.37 71.26 87.73 71.30 55.10 71.26 C 53.10 75.19 51.23 79.18 49.48 83.23 C 45.38 76.23 41.31 69.21 37.30 62.16 C 47.50 61.05 57.76 61.67 68.00 61.54 C 94.00 61.56 120.00 61.51 146.00 61.57 C 149.72 61.62 153.45 60.90 157.16 61.26 Z" />
<path fill="#1a1a1a" opacity="1.00" d=" M 57.79 75.73 C 62.29 75.77 66.79 75.77 71.29 75.80 C 63.94 87.42 59.96 101.25 60.96 115.04 C 61.98 134.04 72.11 152.38 87.75 163.24 C 90.06 164.88 92.43 166.62 93.84 169.15 C 96.65 173.85 99.30 178.64 101.92 183.45 C 83.12 177.39 66.86 163.84 57.76 146.28 C 46.26 124.61 46.44 97.43 57.79 75.73 Z" />
<path fill="#1a1a1a" opacity="1.00" d=" M 68.24 92.67 C 87.03 124.67 105.37 156.95 124.02 189.03 C 124.58 189.94 125.26 190.74 126.07 191.44 C 130.24 191.74 134.38 190.91 138.52 190.56 C 134.08 198.39 129.62 206.22 125.00 213.95 C 106.40 182.16 88.19 150.15 69.65 118.33 C 68.16 115.64 66.24 113.08 65.60 110.02 C 65.15 104.12 66.75 98.32 68.24 92.67 Z" />
<path fill="#1a1a1a" opacity="1.00" d=" M 192.32 106.38 C 194.55 102.64 196.71 98.85 199.04 95.16 C 202.78 111.80 200.53 129.70 192.91 144.95 C 183.98 163.00 167.55 177.20 148.34 183.29 C 141.81 185.52 134.93 186.35 128.10 187.04 C 125.82 183.10 123.59 179.15 121.18 175.30 C 135.49 175.95 150.01 172.04 161.72 163.72 C 177.28 152.93 187.76 134.94 188.91 115.98 C 188.99 112.48 190.48 109.29 192.32 106.38 Z" />
</g>
</svg>
